<svg data-v-423bf9ae="" xmlns="http://www.w3.org/2000/svg" viewBox="0 0 322.21871117782194 60" class="font"><!----><!----><!----><g data-v-423bf9ae="" id="176cb5be-71f2-40e4-a063-4b0efb947636" fill="#191919" transform="matrix(4.687499580904879,0,0,4.687499580904879,-2.250002888498699,-17.718745405786194)"><path d="M0.48 7.76L0.48 10.00C0.48 12.60 2.13 13.97 4.54 13.97C7.13 13.97 8.40 12.59 8.40 10.42L8.40 10.08L6.55 10.08L6.55 10.42C6.55 11.52 6.01 12.29 4.54 12.29C3.09 12.29 2.32 11.40 2.32 10.05L2.32 7.70C2.32 6.47 3.15 5.46 4.54 5.46C5.88 5.46 6.55 6.22 6.55 7.34L6.55 7.67L8.40 7.67L8.40 7.34C8.40 5.15 7.01 3.78 4.54 3.78C2.06 3.78 0.48 5.32 0.48 7.76ZM11.42 6.83L9.69 6.83L9.69 13.78L11.45 13.78L11.45 9.88C11.45 8.90 12.10 8.43 12.99 8.43L14.03 8.43L14.03 6.80L13.33 6.80C12.45 6.80 11.86 7.07 11.59 7.84L11.42 7.84ZM20.01 6.83L18.19 12.10L18.02 12.10L16.20 6.83L14.29 6.83L17.19 14.45L16.30 16.58L18.20 16.58L21.91 6.83ZM22.82 16.58L24.58 16.58L24.58 12.80L24.75 12.80C25.12 13.38 25.73 13.97 26.96 13.97C28.70 13.97 30.16 12.43 30.16 10.30C30.16 8.18 28.70 6.64 26.96 6.64C25.73 6.64 25.12 7.22 24.75 7.81L24.56 7.81L24.56 6.83L22.82 6.83ZM26.49 12.40C25.40 12.40 24.58 11.62 24.58 10.30C24.58 8.99 25.40 8.20 26.49 8.20C27.55 8.20 28.39 8.96 28.39 10.30C28.39 11.65 27.55 12.40 26.49 12.40ZM30.72 6.83L30.72 8.37L32.48 8.37L32.48 12.43C32.48 13.22 33.07 13.78 33.85 13.78L35.76 13.78L35.76 12.24L34.64 12.24C34.38 12.24 34.24 12.10 34.24 11.82L34.24 8.37L36.15 8.37L36.15 6.83L34.24 6.83L34.24 4.68L32.48 4.68L32.48 6.83ZM37.04 10.30C37.04 12.49 38.64 13.97 40.68 13.97C42.73 13.97 44.32 12.49 44.32 10.30C44.32 8.12 42.73 6.64 40.68 6.64C38.64 6.64 37.04 8.12 37.04 10.30ZM38.81 10.30C38.81 9.07 39.56 8.26 40.68 8.26C41.80 8.26 42.56 9.07 42.56 10.30C42.56 11.54 41.80 12.35 40.68 12.35C39.56 12.35 38.81 11.54 38.81 10.30ZM45.00 3.98L47.73 8.74L47.73 8.93L44.97 13.78L47.01 13.78L49.07 10.19L49.27 10.19L51.32 13.78L53.37 13.78L50.61 8.93L50.61 8.74L53.34 3.98L51.30 3.98L49.27 7.48L49.07 7.48L47.04 3.98ZM54.01 10.25C54.01 12.40 55.51 13.97 57.58 13.97C59.44 13.97 60.26 12.99 60.73 12.26L59.22 11.40C58.98 11.89 58.53 12.43 57.55 12.43C56.55 12.43 55.89 11.72 55.85 10.82L60.98 10.82L60.98 10.14C60.98 8.05 59.57 6.64 57.55 6.64C55.51 6.64 54.01 8.15 54.01 10.25ZM55.86 9.59C55.97 8.76 56.55 8.18 57.54 8.18C58.45 8.18 59.07 8.74 59.16 9.59ZM61.68 6.83L64.12 10.28L61.66 13.78L63.74 13.78L65.35 11.37L65.52 11.37L67.13 13.78L69.22 13.78L66.75 10.28L69.19 6.83L67.14 6.83L65.52 9.21L65.35 9.21L63.73 6.83Z"></path></g><!----><!----></svg>